<svg width="20" height="20" viewBox="0 0 20 20" fill="none" xmlns="http://www.w3.org/2000/svg">
<path fill-rule="evenodd" clip-rule="evenodd" d="M3 7.66589H7.66722V3H3V7.66589ZM12.3341 7.66589H17V3H12.3341V7.66589ZM3 17H7.66722V12.3328H3V17ZM12.3341 17H17V12.3328H12.3341V17ZM2.19528 8.47061C2.32031 8.59564 2.4899 8.66589 2.66672 8.66589H8.0005C8.17733 8.66589 8.34691 8.59564 8.47194 8.47061C8.59698 8.34558 8.66722 8.17599 8.66722 7.99917V2.66672C8.66722 2.4899 8.59698 2.32031 8.47194 2.19528C8.34691 2.07024 8.17733 2 8.0005 2H2.66672C2.4899 2 2.32031 2.07024 2.19528 2.19528C2.07024 2.32031 2 2.4899 2 2.66672V7.99917C2 8.17599 2.07024 8.34558 2.19528 8.47061ZM11.5294 8.47061C11.6544 8.59564 11.824 8.66589 12.0008 8.66589H17.3333C17.5101 8.66589 17.6797 8.59564 17.8047 8.47061C17.9298 8.34558 18 8.17599 18 7.99917V2.66672C18 2.4899 17.9298 2.32031 17.8047 2.19528C17.6797 2.07024 17.5101 2 17.3333 2H12.0008C11.824 2 11.6544 2.07024 11.5294 2.19528C11.4044 2.32031 11.3341 2.4899 11.3341 2.66672V7.99917C11.3341 8.17599 11.4044 8.34558 11.5294 8.47061ZM2.19528 17.8047C2.32031 17.9298 2.4899 18 2.66672 18H8.0005C8.17733 18 8.34691 17.9298 8.47194 17.8047C8.59698 17.6797 8.66722 17.5101 8.66722 17.3333V11.9995C8.66722 11.8227 8.59698 11.6531 8.47194 11.5281C8.34691 11.403 8.17733 11.3328 8.0005 11.3328H2.66672C2.4899 11.3328 2.32031 11.403 2.19528 11.5281C2.07024 11.6531 2 11.8227 2 11.9995V17.3333C2 17.5101 2.07024 17.6797 2.19528 17.8047ZM11.5294 17.8047C11.6544 17.9298 11.824 18 12.0008 18H17.3333C17.5101 18 17.6797 17.9298 17.8047 17.8047C17.9298 17.6797 18 17.5101 18 17.3333V11.9995C18 11.8227 17.9298 11.6531 17.8047 11.5281C17.6797 11.403 17.5101 11.3328 17.3333 11.3328H12.0008C11.824 11.3328 11.6544 11.403 11.5294 11.5281C11.4044 11.6531 11.3341 11.8227 11.3341 11.9995V17.3333C11.3341 17.5101 11.4044 17.6797 11.5294 17.8047Z" fill="#FAFAFA"/>
</svg>
