<svg width="20" height="20" viewBox="0 0 20 20" fill="none" xmlns="http://www.w3.org/2000/svg">
<path d="M17.2 4.4C17.2 5.72548 13.9764 6.8 9.99999 6.8C6.02354 6.8 2.79999 5.72548 2.79999 4.4M17.2 4.4C17.2 3.07452 13.9764 2 9.99999 2C6.02354 2 2.79999 3.07452 2.79999 4.4M17.2 4.4V15.6C17.2 16.928 14 18 9.99999 18C5.99999 18 2.79999 16.928 2.79999 15.6V4.4M17.2 10C17.2 11.328 14 12.4 9.99999 12.4C5.99999 12.4 2.79999 11.328 2.79999 10" stroke="#FAFAFA" stroke-width="1.2" stroke-linecap="round" stroke-linejoin="round"/>
</svg>
