<svg width="20" height="20" viewBox="0 0 20 20" fill="none" xmlns="http://www.w3.org/2000/svg">
<path fill-rule="evenodd" clip-rule="evenodd" d="M2.95563 3.60564C2.95563 2.36378 3.96235 1.35706 5.20422 1.35706H10.1371C10.7335 1.35706 11.3054 1.59396 11.7271 2.01564L11.7271 2.01566L16.3857 6.67426C16.3857 6.67427 16.3857 6.67427 16.3857 6.67428C16.8074 7.09598 17.0443 7.66792 17.0443 8.26427V16.3943C17.0443 17.6362 16.0376 18.6429 14.7957 18.6429H5.20422C3.96236 18.6429 2.95563 17.6362 2.95563 16.3943V3.60564ZM14.8251 6.95211L11.4493 3.57629V6.95211H14.8251ZM10.1493 2.65713C10.1452 2.65708 10.1412 2.65706 10.1371 2.65706H5.20422C4.68032 2.65706 4.25563 3.08175 4.25563 3.60564V16.3943C4.25563 16.9183 4.68032 17.3429 5.20422 17.3429H14.7957C15.3197 17.3429 15.7443 16.9183 15.7443 16.3943V8.26427C15.7443 8.25449 15.7442 8.24473 15.7439 8.23499C15.6961 8.24619 15.6462 8.25211 15.595 8.25211H10.7993C10.4403 8.25211 10.1493 7.9611 10.1493 7.60211V2.65713ZM6.1528 7.60211C6.1528 7.24313 6.44382 6.95211 6.8028 6.95211H7.6021C7.96108 6.95211 8.2521 7.24313 8.2521 7.60211C8.2521 7.9611 7.96108 8.25211 7.6021 8.25211H6.8028C6.44382 8.25211 6.1528 7.9611 6.1528 7.60211ZM6.1528 10.7993C6.1528 10.4403 6.44382 10.1493 6.8028 10.1493H12.3979C12.7568 10.1493 13.0479 10.4403 13.0479 10.7993C13.0479 11.1583 12.7568 11.4493 12.3979 11.4493H6.8028C6.44382 11.4493 6.1528 11.1583 6.1528 10.7993ZM6.1528 13.9965C6.1528 13.6375 6.44382 13.3465 6.8028 13.3465H12.3979C12.7568 13.3465 13.0479 13.6375 13.0479 13.9965C13.0479 14.3554 12.7568 14.6465 12.3979 14.6465H6.8028C6.44382 14.6465 6.1528 14.3554 6.1528 13.9965Z" fill="#FAFAFA"/>
</svg>
