<svg width="20" height="20" viewBox="0 0 20 20" fill="none" xmlns="http://www.w3.org/2000/svg">
<path d="M9.15521 2.33613C9.62924 1.88796 10.3707 1.88796 10.8448 2.33613L16.8005 7.96708C17.1691 8.31549 17.3779 8.80024 17.3779 9.30735V16.1555C17.3779 17.1742 16.552 18 15.5334 18H13.0741C12.0554 18 11.2296 17.1742 11.2296 16.1555V13.0814C11.2296 12.7419 10.9544 12.4666 10.6148 12.4666H9.38517C9.04562 12.4666 8.77035 12.7419 8.77035 13.0814V16.1555C8.77035 17.1742 7.94456 18 6.92588 18H4.4666C3.44792 18 2.62213 17.1742 2.62213 16.1555V9.30735C2.62213 8.80024 2.83092 8.31549 3.19942 7.96708L9.15521 2.33613ZM9.99999 3.22965L4.0442 8.8606C3.92137 8.97673 3.85177 9.13832 3.85177 9.30735V16.1555C3.85177 16.495 4.12704 16.7704 4.4666 16.7704H6.92588C7.26544 16.7704 7.54071 16.495 7.54071 16.1555V13.0814C7.54071 12.0628 8.3665 11.237 9.38517 11.237H10.6148C11.6335 11.237 12.4593 12.0628 12.4593 13.0814V16.1555C12.4593 16.495 12.7346 16.7704 13.0741 16.7704H15.5334C15.8729 16.7704 16.1482 16.495 16.1482 16.1555V9.30735C16.1482 9.13832 16.0786 8.97673 15.9558 8.8606L9.99999 3.22965Z" fill="#FAFAFA"/>
</svg>
