<svg width="20" height="20" viewBox="0 0 20 20" fill="none" xmlns="http://www.w3.org/2000/svg">
<path fill-rule="evenodd" clip-rule="evenodd" d="M3.02889 3.02888V12.5467L8.1339 10.3589C8.26689 10.3019 8.41772 10.3035 8.54943 10.3634L16.9711 14.1914V3.02888H3.02889ZM18 14.9793V3.01348C18 2.45377 17.5463 2 16.9865 2H3.01349C2.45376 2 2.00001 2.45375 2.00001 3.01348V13.3155C1.99983 13.3233 1.99983 13.331 2.00001 13.3388V16.9865C2.00001 17.5463 2.45378 18 3.01349 18H16.9865C17.5463 18 18 17.5463 18 16.9865V15.002C18.0002 14.9945 18.0002 14.9869 18 14.9793ZM16.9711 15.3216L8.33044 11.394L3.02889 13.6661V16.9711H16.9711V15.3216ZM13.3269 5.52407C12.6923 5.52407 12.1779 6.03849 12.1779 6.67308C12.1779 7.30767 12.6923 7.8221 13.3269 7.8221C13.9615 7.8221 14.4759 7.30767 14.4759 6.67308C14.4759 6.03849 13.9615 5.52407 13.3269 5.52407ZM11.149 6.67308C11.149 5.47027 12.1241 4.49519 13.3269 4.49519C14.5298 4.49519 15.5048 5.47027 15.5048 6.67308C15.5048 7.8759 14.5298 8.85098 13.3269 8.85098C12.1241 8.85098 11.149 7.8759 11.149 6.67308Z" fill="#FAFAFA"/>
</svg>
