<svg width="16" height="16" viewBox="0 0 16 16" fill="none" xmlns="http://www.w3.org/2000/svg">
<path fill-rule="evenodd" clip-rule="evenodd" d="M10.9095 8.00015C10.9095 8.7717 10.603 9.51165 10.0574 10.0572C9.51186 10.6028 8.7719 10.9093 8.00035 10.9093C7.2288 10.9093 6.48884 10.6028 5.94327 10.0572C5.3977 9.51165 5.0912 8.7717 5.0912 8.00015C5.0912 7.2286 5.3977 6.48864 5.94327 5.94307C6.48884 5.3975 7.2288 5.091 8.00035 5.091C8.7719 5.091 9.51186 5.3975 10.0574 5.94307C10.603 6.48864 10.9095 7.2286 10.9095 8.00015ZM9.81856 8.00015C9.81856 8.48237 9.627 8.94484 9.28602 9.28582C8.94504 9.6268 8.48257 9.81837 8.00035 9.81837C7.51813 9.81837 7.05566 9.6268 6.71468 9.28582C6.37369 8.94484 6.18213 8.48237 6.18213 8.00015C6.18213 7.51793 6.37369 7.05546 6.71468 6.71448C7.05566 6.3735 7.51813 6.18193 8.00035 6.18193C8.48257 6.18193 8.94504 6.3735 9.28602 6.71448C9.627 7.05546 9.81856 7.51793 9.81856 8.00015Z" fill="#FAFAFA"/>
<path fill-rule="evenodd" clip-rule="evenodd" d="M8.00035 1.74201e-06C7.80543 1.74201e-06 7.61198 0.0072746 7.4207 0.0203658C6.86578 0.0603665 6.4425 0.469101 6.32104 0.968747L6.06504 2.02331C6.05049 2.08004 5.99958 2.14841 5.9014 2.18332C5.72158 2.24849 5.5449 2.32203 5.37193 2.40368C5.27739 2.44732 5.19302 2.43568 5.14284 2.40514L4.21628 1.84076C3.777 1.57312 3.18935 1.5833 2.76898 1.94767C2.47588 2.20077 2.20169 2.47568 1.94787 2.76805C1.58423 3.18915 1.57332 3.7768 1.84096 4.21535L2.40533 5.14264C2.43588 5.19283 2.44824 5.27719 2.40388 5.37174C2.32242 5.54411 2.24897 5.72084 2.18424 5.9012C2.14787 5.99939 2.08024 6.05102 2.02351 6.06484L0.968943 6.32085C0.469298 6.4423 0.0605626 6.86559 0.0205618 7.42051C-0.00709808 7.80644 -0.00709808 8.19386 0.0205618 8.5798C0.0605626 9.13472 0.469298 9.558 0.968943 9.67946L2.02351 9.93546C2.08024 9.95001 2.1486 10.0009 2.18351 10.0991C2.24897 10.2795 2.32242 10.4562 2.40388 10.6293C2.44752 10.7231 2.43588 10.8075 2.40533 10.8577L1.84096 11.7842C1.57332 12.2235 1.5835 12.8112 1.94787 13.2315C2.20097 13.5246 2.47588 13.7988 2.76825 14.0526C3.18935 14.4163 3.777 14.4272 4.21555 14.1595L5.14284 13.5952C5.19302 13.5646 5.27739 13.5523 5.37193 13.5966C5.5443 13.6781 5.72103 13.7515 5.9014 13.8163C5.99958 13.8526 6.05122 13.9203 6.06504 13.977L6.32104 15.0316C6.4425 15.5312 6.86578 15.9399 7.4207 15.9792C7.80663 16.0069 8.19406 16.0069 8.57999 15.9792C9.13491 15.9399 9.55819 15.5312 9.67965 15.0316L9.93566 13.977C9.9502 13.9203 10.0011 13.8519 10.0993 13.817C10.2797 13.7515 10.4564 13.6781 10.6295 13.5966C10.7233 13.553 10.8077 13.5646 10.8579 13.5952L11.7844 14.1595C12.2237 14.4272 12.8113 14.417 13.2317 14.0526C13.5248 13.7995 13.799 13.5246 14.0528 13.2323C14.4165 12.8112 14.4274 12.2235 14.1597 11.785L13.5954 10.8577C13.5648 10.8075 13.5525 10.7231 13.5968 10.6286C13.6783 10.4562 13.7517 10.2795 13.8165 10.0991C13.8528 10.0009 13.9205 9.94928 13.9772 9.93546L15.0318 9.67946C15.5314 9.558 15.9401 9.13472 15.9794 8.5798C16.0071 8.19386 16.0071 7.80644 15.9794 7.42051C15.9401 6.86559 15.5314 6.4423 15.0318 6.32085L13.9772 6.06484C13.9205 6.0503 13.8521 5.99939 13.8172 5.9012C13.752 5.72139 13.6785 5.54471 13.5968 5.37174C13.5532 5.27719 13.5648 5.19283 13.5954 5.14264L14.1597 4.21608C14.4274 3.7768 14.4172 3.18915 14.0528 2.76878C13.7997 2.47568 13.5248 2.2015 13.2324 1.94767C12.8113 1.58403 12.2237 1.57312 11.7851 1.84076L10.8579 2.40514C10.8077 2.43568 10.7233 2.44805 10.6288 2.40368C10.4558 2.32229 10.2791 2.249 10.0993 2.18404C10.0011 2.14768 9.94947 2.08004 9.93566 2.02331L9.67965 0.968747C9.55819 0.469101 9.13491 0.0603665 8.57999 0.0203658C8.38708 0.00666732 8.19374 -0.000125029 8.00035 1.74201e-06ZM7.49852 1.10911C7.83264 1.08516 8.16805 1.08516 8.50217 1.10911C8.54218 1.11202 8.60036 1.14548 8.62 1.22548L8.87527 2.28004C8.98655 2.73678 9.33055 3.06551 9.72838 3.20952C9.87747 3.26334 10.0229 3.3237 10.1648 3.39061C10.3629 3.48646 10.5818 3.53171 10.8017 3.52232C11.0217 3.51293 11.2358 3.44919 11.4251 3.33679L12.3524 2.77242C12.423 2.72878 12.4877 2.74623 12.5183 2.77242C12.7713 2.99206 13.0084 3.22915 13.2281 3.48225C13.2543 3.51279 13.2717 3.5768 13.2281 3.64807L12.6637 4.57463C12.5512 4.76401 12.4874 4.97833 12.478 5.19841C12.4686 5.4185 12.5139 5.63747 12.6099 5.83575C12.6768 5.97757 12.7372 6.12303 12.7903 6.27212C12.9343 6.66994 13.2644 7.01395 13.7197 7.1245L14.7743 7.38123C14.855 7.40014 14.8885 7.45832 14.8914 7.49832C14.9153 7.83245 14.9153 8.16786 14.8914 8.50198C14.8885 8.54198 14.855 8.60016 14.775 8.6198L13.7205 8.87508C13.5071 8.92947 13.3106 9.03586 13.1484 9.18472C12.9862 9.33358 12.8634 9.5203 12.791 9.72818C12.7372 9.87641 12.6766 10.022 12.6092 10.1646C12.5134 10.3628 12.4683 10.5817 12.4778 10.8016C12.4873 11.0216 12.5512 11.2357 12.6637 11.4249L13.2281 12.3522C13.2717 12.4228 13.2543 12.4875 13.2281 12.5181C13.0089 12.7715 12.7717 13.0087 12.5183 13.2279C12.4877 13.2541 12.4237 13.2715 12.3524 13.2279L11.4251 12.6635C11.2358 12.5511 11.0217 12.4874 10.8017 12.478C10.5818 12.4686 10.3629 12.5138 10.1648 12.6097C10.0222 12.6766 9.87658 12.7368 9.72838 12.7901C9.52063 12.8626 9.33406 12.9854 9.18533 13.1476C9.0366 13.3098 8.93033 13.5063 8.876 13.7195L8.61927 14.7741C8.60036 14.8548 8.54218 14.8883 8.50217 14.8912C8.16805 14.9151 7.83264 14.9151 7.49852 14.8912C7.45852 14.8883 7.40034 14.8548 7.3807 14.7748L7.12542 13.7203C7.07102 13.5069 6.96464 13.3104 6.81578 13.1482C6.66692 12.986 6.4802 12.8632 6.27231 12.7908C6.12409 12.737 5.97848 12.6764 5.83594 12.609C5.63761 12.5131 5.4186 12.4679 5.19852 12.4774C4.97843 12.4869 4.76414 12.5509 4.57483 12.6635L3.64827 13.2279C3.57772 13.2715 3.51299 13.2541 3.48244 13.2279C3.22904 13.0087 2.99181 12.7715 2.77261 12.5181C2.74643 12.4875 2.72898 12.4235 2.77261 12.3522L3.33699 11.4249C3.44938 11.2357 3.51313 11.0215 3.52252 10.8015C3.53191 10.5816 3.48666 10.3627 3.39081 10.1646C3.32367 10.022 3.26324 9.87639 3.20971 9.72818C3.13724 9.52052 3.0145 9.33401 2.85246 9.18528C2.69041 9.03656 2.49408 8.93024 2.28097 8.8758L1.2264 8.61907C1.14567 8.60016 1.11222 8.54198 1.10931 8.50198C1.08535 8.16786 1.08535 7.83245 1.10931 7.49832C1.11222 7.45832 1.14567 7.40014 1.22568 7.3805L2.28024 7.12523C2.49356 7.07083 2.69009 6.96445 2.85228 6.81559C3.01447 6.66672 3.13727 6.48001 3.20971 6.27212C3.26324 6.12392 3.32367 5.9783 3.39081 5.83575C3.48678 5.63747 3.53211 5.4185 3.52271 5.19841C3.51332 4.97833 3.44951 4.76401 3.33699 4.57463L2.77261 3.64807C2.72898 3.57752 2.74643 3.51279 2.77261 3.48225C2.99225 3.22915 3.22935 2.99206 3.48244 2.77242C3.51299 2.74623 3.57699 2.72878 3.64827 2.77242L4.57483 3.33679C4.76421 3.44931 4.97853 3.51312 5.19861 3.52252C5.41869 3.53191 5.63767 3.48659 5.83594 3.39061C5.9785 3.32348 6.12411 3.26305 6.27231 3.20952C6.47998 3.13704 6.66649 3.01431 6.81522 2.85226C6.96394 2.69021 7.07026 2.49388 7.12469 2.28077L7.38143 1.22621C7.40034 1.14548 7.45852 1.11202 7.49852 1.10911Z" fill="#FAFAFA"/>
</svg>
